<svg xmlns="http://www.w3.org/2000/svg" viewBox="0 0 1200 630">
  <defs>
    <linearGradient id="bg" x1="0" x2="1200" y1="630" y2="0" gradientUnits="userSpaceOnUse">
      <stop stop-color="#061322"/>
      <stop offset=".62" stop-color="#005A9E"/>
      <stop offset="1" stop-color="#50E6FF"/>
    </linearGradient>
  </defs>
  <rect width="1200" height="630" fill="url(#bg)"/>
  <circle cx="1010" cy="110" r="280" fill="#50E6FF" opacity=".16"/>
  <circle cx="160" cy="570" r="250" fill="#0078D4" opacity=".35"/>
  <defs>
    <linearGradient id="azure-left" x1="42.828" x2="15.787" y1="12.688" y2="92.574" gradientUnits="userSpaceOnUse">
      <stop stop-color="#114A8B"/>
      <stop offset="1" stop-color="#0669BC"/>
    </linearGradient>
    <linearGradient id="azure-shadow" x1="51.275" x2="45.02" y1="49.917" y2="52.032" gradientUnits="userSpaceOnUse">
      <stop stop-opacity=".3"/>
      <stop offset=".071" stop-opacity=".2"/>
      <stop offset=".321" stop-opacity=".1"/>
      <stop offset=".623" stop-opacity=".05"/>
      <stop offset="1" stop-opacity="0"/>
    </linearGradient>
    <linearGradient id="azure-right" x1="47.835" x2="77.518" y1="10.358" y2="89.439" gradientUnits="userSpaceOnUse">
      <stop stop-color="#3CCBF4"/>
      <stop offset="1" stop-color="#2892DF"/>
    </linearGradient>
  </defs>
  <g transform="translate(80 70) scale(1.5)">
    <path fill="url(#azure-left)" d="M33.338 6.544h26.038l-27.03 80.087a4.152 4.152 0 0 1-3.933 2.824H8.149a4.145 4.145 0 0 1-3.928-5.47L29.404 9.368a4.152 4.152 0 0 1 3.934-2.825z"/>
    <path fill="#0078D4" d="M71.175 60.261h-41.29a1.911 1.911 0 0 0-1.305 3.309l26.532 24.764a4.171 4.171 0 0 0 2.846 1.121h23.38z"/>
    <path fill="url(#azure-shadow)" d="M33.338 6.544a4.118 4.118 0 0 0-3.943 2.879L4.252 83.917a4.14 4.14 0 0 0 3.908 5.538h20.787a4.443 4.443 0 0 0 3.41-2.9l5.014-14.777 17.91 16.705a4.237 4.237 0 0 0 2.666.972H81.24L71.024 60.261l-29.781.007L59.47 6.544z"/>
    <path fill="url(#azure-right)" d="M66.595 9.364a4.145 4.145 0 0 0-3.928-2.82H33.648a4.146 4.146 0 0 1 3.928 2.82l25.184 74.62a4.146 4.146 0 0 1-3.928 5.472h29.02a4.146 4.146 0 0 0 3.927-5.472z"/>
  </g>
  <text x="80" y="290" fill="#FFFFFF" font-family="Segoe UI, Arial, sans-serif" font-size="82" font-weight="700" letter-spacing="-3">Azure Skills</text>
  <text x="82" y="370" fill="#D9F8FF" font-family="Segoe UI, Arial, sans-serif" font-size="38" font-weight="600">Azure expertise and MCP-backed execution</text>
  <text x="82" y="428" fill="#D9F8FF" font-family="Segoe UI, Arial, sans-serif" font-size="38" font-weight="600">for AI coding agents.</text>
  <rect x="82" y="492" width="340" height="54" rx="27" fill="#FFFFFF" opacity=".95"/>
  <text x="112" y="528" fill="#005A9E" font-family="Segoe UI, Arial, sans-serif" font-size="24" font-weight="700">microsoft/azure-skills</text>
</svg>
